<svg id="Livello_1" data-name="Livello 1" xmlns="http://www.w3.org/2000/svg" viewBox="0 0 310.95 311.01"><defs><style>.cls-1{fill:#9eb2db;}.cls-2{fill:none;stroke:#9eb1db;stroke-miterlimit:10;stroke-width:3px;}.cls-3{fill:#9eb1db;}</style></defs><title>CSP-logo</title><path class="cls-1" d="M265.2,316.84l.81,1.49a.27.27,0,0,0,.37.13l5.35-.87a6.65,6.65,0,0,0,1.93-.56,1.17,1.17,0,0,0,.19-1.43l-.13-.25c-.12-.19-.12-.31,0-.37s.25.06.38.31a16.9,16.9,0,0,1,.81,1.55l.24.56.75,1.31,1,1.68c.18.43.18.56.06.62s-.19-.06-.25-.19l-.13-.25-.37-.49c-.81-1.12-2-1.12-3.61-.94l-10,1.43-9.08,1.31c-1,.12-1.25.12-1.31-.06s-.06-.31.56-1.06l1.62-2,1.55-1.87,2-2.48,1-1.25,1.55-1.86,1.5-1.81,1-1.24,1.43-1.87.19-.25a6.57,6.57,0,0,0,1.06-1.61,3,3,0,0,0,.43-1.25,1.72,1.72,0,0,0,0-1v-.19a4.33,4.33,0,0,0-.43-.93c-.07-.13-.07-.25,0-.31s.12-.07.25,0,.18.18.24.37l.5.87.69,1.24.68,1.25.44.87c.24.5.43.81.24.87s-.18,0-.24-.06-.44-.19-.81.18l-1.5,1.87-1,1.24-1.56,1.81-.8,1c-.07.13-.13.19,0,.31l.24.56.69,1.25Zm-.31,1.87-.87-1.87-1.37-2.49-.5-.93c-.06-.12-.18-.06-.25,0l-.8.93L259,316.84l-1.62,1.87-.93,1.05c-.31.32-.25.5.25.44l8.15-1.43ZM241,294.57a.41.41,0,0,0,.07.38l.49,1.49.44,1.24.12.38.25.87.56,1.86.13.56c.12.31.25.44.37.38s.13-.19.13-.31l-.19-.69-.06-.31c-.13-.81.06-1.18.68-1.49l.5-.25c.62-.25,1.18-.44,2.92-1l3-1,.74-.25,4.05-1.31,1.61-.56c1.93-.62,3.49-1.05,4.36-1.24s1.49-.19,1.8.31a6.84,6.84,0,0,1,.44.93c.06.13.12.13.31,0s0-.25-.06-.43l-.5-1.37-.5-1.37-.12-.5L262,289l-.5-1.87-.75-2.49-.37-1.18c-.5-1.55-.62-1.62-1.37-1.62s-2.55.38-2.86.44-.44.19-.37.31.25.19.43.12a3.8,3.8,0,0,1,1.87.19,2.86,2.86,0,0,1,1.43,1.62,14.9,14.9,0,0,1,.56,1.62l.25.8a11.72,11.72,0,0,1,.43,1.87,4.05,4.05,0,0,1-.12,1,3,3,0,0,1-1.18.87,43.18,43.18,0,0,1-5.1,1.86l-4.73,1.5-1,.31c-3.42,1.12-4.1,1.36-5,1.55s-1.56.19-1.93-.62a6.58,6.58,0,0,1-.44-.93c.13.12,0,0-.25.18m14.12-49.45a10.07,10.07,0,0,1-.12,1.74.9.9,0,0,1-.31.69,4.35,4.35,0,0,1-2.61,1.12l-7.16,1.3-10.45,1.93c-.56.06-.74.19-.74.5a.77.77,0,0,0,.49.31l5.23,2.18,12.19,5,1.31.56-7.34,4.42-4.11,2.49-3.11,1.86-3,1.81a.5.5,0,0,0-.31.43c0,.19.25.25.56.31l19,.88a5.25,5.25,0,0,1,1.81.24,1.11,1.11,0,0,1,.62.75,6.82,6.82,0,0,1,.19,1.06c0,.06.06.12.31,0,.06-.06.06-.25.06-.44l-.19-1.43-.12-1.12v-.62l-.12-2.05c-.07-.38-.13-.56-.32-.5s-.12.12-.12.25v.5l-.06.68a1,1,0,0,1-.81.87c-.5,0-1,.06-1.49.06l-13.5-.24,2.18-1.31,3.17-1.87,2.55-1.55,1.55-.94c1.62-1,4-2.48,4.92-3s1.24-.81,1.24-1-.31-.31-1.62-.93l-12-4.92-3.55-1.43,5.79-1,8.95-1.56a1.24,1.24,0,0,1,1.31.25c.13,0,.25-.18.25-.87v-.25l-.06-2.49-.13-2.48c-.06-.25-.18-.5-.31-.5.06-.06.06,0,.06.37m-5-16.05-.25,1.25-.19.87a.34.34,0,0,0,.19.31l1.18.68,3.11,1.87.37.25a5.83,5.83,0,0,0,1.81.81c.56.12,1-.5,1-1l.06-.25c.07-.25.13-.31.25-.25s.13.25.13.5l-.31,1.25-.25,1-.19,1.43-.37,1.93c-.06.31-.13.5-.25.5s-.25-.19-.19-.31l.13-.87a2.34,2.34,0,0,0-.25-1.31,6,6,0,0,0-1.93-1.74l-1.18-.75-2-1.24L248,232.18l-3-1.86-2-1.25-2.93-1.86-2.24-1.43-.68-.44c-.25-.18-.31-.31-.25-.43s.19-.25,1.12-.44l5.1-1,9.52-1.87,3.92-.75a7.08,7.08,0,0,0,2.8-1.05,2.27,2.27,0,0,0,.74-.88,3.36,3.36,0,0,0,.38-1c.12-.37.12-.44.25-.44s.18.19.18.44l-.37,1.87-.37,1.86-.25,1.18a4.7,4.7,0,0,0-.19.69c-.25.12-.25.06-.31,0-.06-.25-.25-.5-.75-.44l-2.24.44-5.28,1c-.13.07-.19.07-.19.25l-.13.62-.37,1.87Zm-1.31,1.19L249,229l.31-1.86.37-1.87.13-.44-3.86.44-4.54.75c-.44.06-.5.18-.12.43l1.18.69,3.23,1.86,2.18,1.25.62.37Zm34-54.37.69-1c.18-.32.25-.63-.13-.56a7,7,0,0,1-1.3,1.55,2.73,2.73,0,0,1-3,0l-.5-.19L268.56,171l-6.22-3c-.5-.25-.75-.31-.87-.12a.67.67,0,0,0,.19.62l1.49,2.42,3.11,4.92,1.55,2.49,1.12,1.86,1.12,1.87,1.12,1.86,1.12,1.81L252,184c-.31,0-.5,0-.62.18s0,.38.25.56l1.43,1.12,3.11,2.49,2.3,1.87,2.3,1.86,2.3,1.87,2.31,1.87,1.05.87c.87.68,1.81,1.36,1.37,2.3a4.54,4.54,0,0,1-.43.81c-.07.12-.13.31,0,.31s.31-.06.49-.31c.44-.69,1.12-2,1.31-2.18l1.18-1.8.38-.56c.18-.32.24-.5-.19-.5-.13.12-.44.5-.93,1.06a.87.87,0,0,1-1.06,0c-.44-.25-.81-.5-1.18-.75l-1.43-1.12-2.49-1.87L261,190.2l-2.42-1.87-2-1.49c.93.06,8.58.81,9.14.87.31,0,6,.5,7.59.56,1.18.06,1.55.06,1.62-.06s-.07-.44-.75-1.68l-.37-.62L272.6,184l-1.12-1.87-1.18-1.86-1.18-1.87L267.63,176l-2.3-3.73L273,176l5,2.49.8.44c.5.18.87.49.87.93.13.06.25,0,.69-.56l.56-.75Zm16.61-19.78c1.93.75,2.74.44,3.3.19l.37-.19c.25-.19.44-.37.62-.5s.25-.18.31-.12-.06.37-.25.62-2,1.8-3.54,3.23c-.44.38-.69.63-.81.5s0-.18,0-.31a.6.6,0,0,0-.37-.74l-5.73-2.68-1.18-.62a.59.59,0,0,0-.31.06l-.5.5L287,160a.3.3,0,0,0-.06.37l2.12,5,.25.56a4.08,4.08,0,0,0,.74,1.12c.38.43,1.06.18,1.43-.19s.5-.37.56-.31,0,.31-.18.5c-.56.5-1.56,1.3-1.81,1.55s-1.3,1.31-2.3,2.24c-.43.44-.62.5-.75.38s0-.19.07-.32l.62-.62c.93-1,.62-2.3.06-3.73l-.25-.62-4-9.89-1.93-4.92-1-2.36c-.44-.93-.44-1.12-.32-1.24s.32-.13,1.19.31l7.15,3.36c3.61,1.68,7.71,3.6,9.89,4.54Zm-9.7,0,1.05-1-7.4-3.92c-.31-.19-.5-.19-.43,0l.06.25,2.05,4.66,1.31,2.86Zm19-12.81,1.8,2.92a23.51,23.51,0,0,1,1.37,2.49c.37.81.56,1.37.13,1.8a3.19,3.19,0,0,1-.75.56l-.13.31c.13.13.25.13.56-.06l.25-.12c.81-.56,2.12-1.43,2.24-1.5s1.81-1,3.24-1.92c.25-.19.37-.32.31-.44s-.13-.12-.31,0-.81.44-1.25.62c-.81.38-1.3-.06-1.86-.74l-.75-1c-.75-1.06-1.68-2.55-2.74-4.29l-.43-.69-6.1-9.7,3.3-2c2.49-1.56,3.42-1.31,4-.62l.19.25c.25.31.31.37.43.31s.13-.19,0-.44-1.12-2-1.61-2.73c-.13-.13-.19-.32-.31-.25a18.59,18.59,0,0,1-2.43,1.86l-9.64,6c-.31.18-1.31.74-2.12,1.12s-1.18.31-1.3.43,0,.44.06.62.87,2.68,1,2.93.18.18.24.12.13-.19.13-.43a4.08,4.08,0,0,1-.06-1.06c.06-.81.56-1.43,2.17-2.43l3.8-2.42,5.22,8.33Zm114.76-1.87c.31.13.5.13.5,0s0-.12-.12-.31a8.93,8.93,0,0,1-1.25-.56c-.81-.44-.75-1.12-.5-1.93.31-1.18,1.12-3.36,2.06-5.91l4.41-11.38,3.55,1.43c2.67,1.06,3.11,2,2.92,2.8l-.12.31c-.13.37-.13.5.06.56s.25-.06.31-.25.93-2.11,1.24-2.92c.07-.19.13-.31-.06-.38a16.24,16.24,0,0,1-2.92-.8L422.88,118c-.37-.12-1.43-.62-2.17-1a7.48,7.48,0,0,1-1.12-.81c-.13-.07-.38.25-.5.43s-1.62,2.3-1.68,2.55,0,.25.06.31.25,0,.44-.18a3.84,3.84,0,0,1,.81-.63c.74-.43,1.43-.43,3.23.25l4.23,1.56-4.35,11.44a50.08,50.08,0,0,1-2.43,5.79c-.43.74-.81,1.3-1.43,1.18-.25-.06-.62-.12-.87-.19s-.25,0-.25.07.06.31.37.37l2.87,1c.06.07,1.49.63,2.86,1.19Zm36.33,4.79c2.18-3.05,2.55-3.67,3.11-4.35a4.22,4.22,0,0,1,.56-.56c.37-.31.74-.38,1.55,0a2.22,2.22,0,0,1,.44.25c.06.12.19.12.31,0s.06-.13-.31-.44c-.75-.5-1.93-1.24-2.18-1.37s-1.49-1.12-2.61-1.93c-.25-.18-.44-.25-.5-.12a.28.28,0,0,0,.06.31,4.12,4.12,0,0,1,.81.68c.75.75.62,1.25.13,2.12l-.38.56c-.43.68-1.12,1.74-3.17,4.6l-.31.37-1.8,2.55a27.64,27.64,0,0,1-1.87,2.37,8.06,8.06,0,0,1-3.67,2.42,6.93,6.93,0,0,1-5.1-1,9.28,9.28,0,0,1-1.62-1.37,6,6,0,0,1-1.18-2.55,6.11,6.11,0,0,1-.06-2.43,14.11,14.11,0,0,1,2.42-5l2.18-3.11c2.61-3.67,3.11-4.36,3.67-5s1.12-1.06,1.87-.68a4.12,4.12,0,0,1,.68.37c.06.06.25.12.31,0s0-.25-.25-.44c-.74-.49-2.3-1.49-2.48-1.68s-1.68-1.3-2.8-2c-.25-.19-.44-.25-.5-.12s0,.18.06.31a4.43,4.43,0,0,1,.81.68c.68.75.62,1.25.12,2.12s-.93,1.49-3.54,5.16L442,140.31l-.74,1.18a9.57,9.57,0,0,0-1.62,5,6.54,6.54,0,0,0,.19,1.62,8.27,8.27,0,0,0,1.74,3.36,15.64,15.64,0,0,0,2.17,1.92,9.12,9.12,0,0,0,6.35,1.87c2.43-.25,4.42-1.87,6-3.79.44-.56.87-1.12,1.24-1.68l1.81-2.55.56-1m6.72,24.69c.31.38.68.81,1.05,1.31a10.42,10.42,0,0,0,6.85,3.55c2.17.18,4.79-1,6.78-2.8a13.81,13.81,0,0,0,1.8-2.06,9.79,9.79,0,0,0,1.68-5c.25-4-1.8-6.91-4.23-9.58l-.31-.31a7.89,7.89,0,0,0-1.18-1.06.52.52,0,0,0-.69.13l-1,.93-3.55,3.17L471,161.65c-2.3,2-4.23,3.85-4.61,4.23a7.58,7.58,0,0,0-1.43,1.68c-.12.62.07,1.61,1.5,3.35m19.84,0a11.19,11.19,0,0,1-4.6,4.92,11.32,11.32,0,0,1-6.29,1.55,10.8,10.8,0,0,1-5-1.55,14.14,14.14,0,0,1-3.61-3.05c-.5-.56-1.06-1.24-1.62-1.93-1.3-1.61-2.49-3.17-2.61-3.29L461,165.94l-.49-.56c-.25-.25-.25-.44-.13-.5s.13-.06.31.06.5.44.69.63c.5.37,1.06.06,1.8-.38a52,52,0,0,0,4.73-4.1l3.79-3.42,1.81-1.62c1.86-1.68,2.3-2.12,2.8-2.61.68-.75.87-1.19.37-2.12l-.62-.81c-.13-.12-.13-.25-.06-.31s.31,0,.49.19l.63.68,1.61,1.93c.25.25,1.62,1.62,2.86,3,1.81,2,5.23,5.47,5.66,9.89a8.81,8.81,0,0,1,0,1.36,16.32,16.32,0,0,1-1,3.67m-2.8,22.9a2.75,2.75,0,0,1,.5-.44c.49-.37,1.3-.87,2.24-1.43l3.29-1.87,3.36-1.86.94-.5,3.48-1.93c1.06-.62,1.49-.81,2-1.06.93-.43,1.49-.43,2,.19a2.22,2.22,0,0,1,.43.62c.07.13.19.19.25.13s.13-.25,0-.56l-.74-1.19-.81-1.36-.31-.5-.94-1.87-.18-.37c-.19-.31-.25-.44-.44-.31a.28.28,0,0,0,0,.31l.19.37.12.5a1.28,1.28,0,0,1-.49,1.37,2.85,2.85,0,0,1-.44.37c-.56.31-1.06.62-2.67,1.49l-2.8,1.56-.5.31L488,188l-.56.31c-1.31.68-2.49,1.37-3.42,1.87a14.25,14.25,0,0,1-1.62.74c-.81.31-1.43.5-1.8,0a3.35,3.35,0,0,1-.56-.74c-.06-.13-.19-.13-.37,0a1.68,1.68,0,0,0,.12.43l.81,1.43.68,1.12.38.75,1,1.86.37.75c.19.31.32.37.44.31s.12-.12.06-.31l-.37-.75-.25-.49a1.59,1.59,0,0,1,.56-1.43m11.82,26c1.86,1.24,4.73,1.8,8.71.49.43-.18.87-.31,1.36-.49a11.28,11.28,0,0,0,3.05-1.87,9.75,9.75,0,0,0,2.12-2.43,8.34,8.34,0,0,0,.81-1.86,10.31,10.31,0,0,0,.37-1.87,9.65,9.65,0,0,0-.06-1.86,7.82,7.82,0,0,0-.38-1.68,12.6,12.6,0,0,0-1.24-2.62c-2.11-3-5.72-4.41-10.51-2.86a12.69,12.69,0,0,0-5,2.86,9.38,9.38,0,0,0-1.93,2.49,11.17,11.17,0,0,0-.74,1.87,5.75,5.75,0,0,0-.31,1.86v1.87a15.77,15.77,0,0,0,.43,1.74A9.11,9.11,0,0,0,493.3,218a11.37,11.37,0,0,0,2,1.81m15.18,0a11.05,11.05,0,0,1-4.79,3,11.72,11.72,0,0,1-10-1.18,10.56,10.56,0,0,1-2.18-1.86,11,11,0,0,1-1.43-1.87,15.19,15.19,0,0,1-1.18-2.43l-.18-.56a9.11,9.11,0,0,1-.38-1.3,7,7,0,0,1-.25-1.87c-.06-.68-.06-1.24-.06-1.86a9.25,9.25,0,0,1,.31-1.87,9.63,9.63,0,0,1,.93-2.49,12.15,12.15,0,0,1,5.54-5,5.61,5.61,0,0,0,1.06-.44,11.44,11.44,0,0,1,13.37,5.41,12.81,12.81,0,0,1,1,2.49,7.3,7.3,0,0,1,.49,1.87,9.14,9.14,0,0,1,.25,1.86,8.35,8.35,0,0,1,0,1.87,17.18,17.18,0,0,1-.31,1.86,8.22,8.22,0,0,1-.93,2.43,9.48,9.48,0,0,1-1.24,1.87m-10.89,32.71a6.49,6.49,0,0,0-1.12,2.49,4.41,4.41,0,0,0-.12.81,6.26,6.26,0,0,0,0,1.18.23.23,0,0,1-.13.31c-.18,0-.25-.12-.31-.68l-.12-1.56v-.56a6.45,6.45,0,0,1-.07-1.86,4.93,4.93,0,0,1,.32-1.43,4.3,4.3,0,0,1,.62-1.06,26.63,26.63,0,0,1,2.3-2.49l1-.93,1.62-1.56,2.3-2.11c.13-.12.13-.19.13-.37l-.19-2.49-.12-1.31c0-.12-.13-.18-.25-.18l-.69.06c-2.73.25-5,.43-6.22.68-.68.13-1.12.25-1.37.75a1.5,1.5,0,0,0-.12.56v1.37c.06.18-.06.25-.12.25s-.25-.13-.32-.44l-.12-1.74-.12-2-.07-.5c-.06-.62-.18-1.74-.25-2.36,0-.38,0-.5.19-.5s.13.06.19.25a2.73,2.73,0,0,0,.18.87c.19.62.88.68,1.68.74a62.87,62.87,0,0,0,6.29-.43l5-.44c4.48-.43,5.29-.49,6.22-.62l.32-.06a1.29,1.29,0,0,0,1.24-1.24v-1.19c0-.12,0-.24.19-.24s.25.12.25.49l.06,1,.06,1.24.06,1.18.13,1.31.25,2.3a12.94,12.94,0,0,1,.06,2.61,6.94,6.94,0,0,1-.56,2.49l-.25.5a5,5,0,0,1-2.12,1.93,6,6,0,0,1-1.68.5,7.47,7.47,0,0,1-3.17-.5,11.79,11.79,0,0,1-3.67-2.49h-.31l-2.49,2.49c-.93.87-1.74,1.68-2.49,2.49-.62.62-1.18,1.24-1.74,1.86Zm9.14-7.4a6.32,6.32,0,0,0,3.42.56,7,7,0,0,0,2.31-.56,4.7,4.7,0,0,0,2.61-2.49,6.11,6.11,0,0,0,.43-2.48v-.25a17,17,0,0,0-.31-2.06.32.32,0,0,0-.25-.18l-9.51.81a.77.77,0,0,0-.38.25,3.79,3.79,0,0,0-.18,1.43c0,.56,0,1.18.06,1.8l.12.68a2.9,2.9,0,0,0,.63,1.56,2.26,2.26,0,0,0,1.05.93m7.78,34.65c.06-.31,0-.5-.13-.5s-.18.13-.24.25a5.87,5.87,0,0,1-.19,1,1.49,1.49,0,0,1-1.8,1.05c-1-.06-1.75-.18-6.22-.93l-3.55-.56a16.17,16.17,0,0,1-5-1.49,6.23,6.23,0,0,1-1.68-1.37,5.63,5.63,0,0,1-1.18-2.37,9.89,9.89,0,0,1-.25-1.86,4.55,4.55,0,0,1,.06-.87c.07-.31.13-.69.19-1.06a8.61,8.61,0,0,1,.81-1.87,5.64,5.64,0,0,1,2-1.8c1.31-.81,3.23-1.24,6.78-.68l4,.62.25.06c4.23.68,5,.81,5.91,1s1.24.43,1.43.87a1.22,1.22,0,0,1,.06.49v.75c-.06.13,0,.25.13.25s.24-.12.31-.44l.12-1.05.25-1.87.44-2.49.18-1c0-.31,0-.5-.18-.5a.26.26,0,0,0-.19.19,5,5,0,0,1-.31,1l-.06.31c-.38.69-.88.81-1.75.75s-1.55-.19-5-.75l-1.12-.18L506.3,264c-3.49-.56-5.6-.06-7.09.87-.31.19-.56.38-.81.56a6.29,6.29,0,0,0-1.62,1.87,10.22,10.22,0,0,0-.87,1.86c-.25.75-.37,1.37-.5,1.81l-.06.31c-.06.5-.12,1-.19,1.62a10.86,10.86,0,0,0,.19,1.86,9.24,9.24,0,0,0,1.12,3,3.82,3.82,0,0,0,.5.68,9.71,9.71,0,0,0,5.72,3.05,12.16,12.16,0,0,0,1.93.38l3.05.49c4.41.69,5.28.81,6.15,1.06s1.37.5,1.44,1.37a3,3,0,0,1,0,.75.15.15,0,0,0,.12.24c.12.07.25-.12.31-.43l.06-.75.25-1.8.25-1.31Zm-17.17,37.07-2-2.49-1-1.24-1.5-1.87-1.49-1.86-1-1.25-1.49-1.86-1.55-1.93,20.4-.75c.31,0,.5-.06.56-.43l-.31-.31-1.56-.94-2-1.24-3.05-1.87-2.05-1.24-1.93-1.18-3-1.87-2.62-1.62-.37-.25c-.81-.49-1.49-1-1.31-1.86.13-.44.25-.69.31-.87a.37.37,0,0,0,0-.38c-.18-.06-.31.13-.43.38l-.37.87-.63,1.49-.18.37c-.25.44-.56,1.12-1.06,2.18-.19.31-.25.5.19.44a11.1,11.1,0,0,1,.62-1,1,1,0,0,1,1.18-.31l1.31.62,3,1.81,2.12,1.18,2.18,1.24,3.17,1.87,1.12.68c-.87.07-8.59.19-9.21.25l-6.28.31-1.24.07c-1.19.06-1.56.12-1.62.31s0,.37.43.87l.56.68.38.56,1.55,1.87,1.43,1.86,1,1.25,1.49,1.86,1.49,1.87,1,1.24,2.18,2.68-.56-.19L490,314.35l-3.54-1.24-2.93-1c-.5-.18-.93-.37-1-.8-.13-.07-.25.06-.63.68l-.62,1.18-.62,1.25-1.06,2.11a1,1,0,0,0-.06.68c.13.07.19,0,.31-.31a6.94,6.94,0,0,1,1.06-1.49c.87-1,2.49-.5,3.42-.19L489.5,317l5.48,1.86,5.6,1.87.68.25c.56.18.81.18.93-.25a1.19,1.19,0,0,0-.25-.38l-1.24-1.49Zm-55.67,47a5.77,5.77,0,0,1,.75-1.12c-2.74.12-5.17-.19-6.53-2.37-1.12-1.86-1-5.47,2.79-7.83,2.68-1.68,5.6-1.62,7,.8,1.62,2.62.31,5.42-.74,7,2.17-.18,5.91-.43,7.77,2.55a2.38,2.38,0,0,1,.5.87c1.12,2.74.12,6.22-3.23,8.34s-7,1.87-8.84-1.12c-1.37-2.24-.81-5,.5-7.15m8.83,0c-1.74-1.68-4.29-1.5-6.9-1.25-.25.44-.5.81-.75,1.25a5.85,5.85,0,0,0,.25,5.78,4.71,4.71,0,0,0,6.59,1.49,4.43,4.43,0,0,0,1.5-6.34,6.24,6.24,0,0,0-.69-.93M440.86,353.6a3.62,3.62,0,0,0-1.37,5.17c1.31,2.05,3.61,2.05,6.41,1.8a5.23,5.23,0,0,0,.25-5.79,3.7,3.7,0,0,0-5.29-1.18M423.2,373.76a6.09,6.09,0,0,0-1.75,6.71,4.62,4.62,0,0,0,6.16,2.74,4.41,4.41,0,0,0,2.68-5.91c-1.06-2.73-3.67-3.23-6.53-3.54l-.56-.07Zm7.65,0a5,5,0,0,1,1.43,2.05,6.61,6.61,0,0,1-3,7.84,15.64,15.64,0,0,1-1.43.74c-2.61,1-5.35.81-7.09-.68a5.91,5.91,0,0,1-1.37-2c-1.12-3,.5-5.85,2.61-7.84-2.55-.5-4.85-1.31-5.78-3.67a5.34,5.34,0,0,1,2.42-6.22,6.84,6.84,0,0,1,1.81-.93c2.36-.94,4.72-.69,6.09.93a5.55,5.55,0,0,1,.69,1.18c1.12,2.86-.75,5.41-2.06,6.78,1.62.06,4.11.37,5.73,1.87m-10.08-9.89-.37.12a3.71,3.71,0,0,0-2.37,4.85c.87,2.24,3.18,2.68,5.91,3,.87-1.06,2.43-2.86,1.37-5.66a3.78,3.78,0,0,0-2.24-2.24,3.25,3.25,0,0,0-2.3-.06m-13.56,19.78a11.45,11.45,0,0,1-1.49,4.91,7,7,0,0,1-4.92,3.36,6.82,6.82,0,0,1-7-3.36,14.12,14.12,0,0,1-2.12-4.91l-.19-1.06a15.54,15.54,0,0,1,.75-8.83,7,7,0,0,1,5.41-4.3c3.67-.56,6.16,1.56,7.59,4.3a14.62,14.62,0,0,1,1.68,5,18.9,18.9,0,0,1,.25,4.85M404,388.56a11,11,0,0,0,1-4.91,20.52,20.52,0,0,0-.31-3.24,19.51,19.51,0,0,0-2.3-6.65c-1.25-2.12-3.05-3.49-5.1-3.18-1.5.25-2.55,1.37-3.18,3.18a16,16,0,0,0-.31,7.27c.19.88.38,1.75.56,2.62a15.61,15.61,0,0,0,2.31,4.91c1.18,1.56,2.67,2.49,4.47,2.18a3.56,3.56,0,0,0,2.86-2.18m-25.12-9.27v-7.52c0-.31-.07-.56-.32-.56a1.69,1.69,0,0,0-.74.31l-3.36,2.24-2.49,1.61a.37.37,0,0,0-.19.31c0,.13.07.25.19.25a.45.45,0,0,0,.37-.12,17.13,17.13,0,0,1,3.43-1.43c.49,0,.55.31.55.87l.13,4.42v4l.06,1.06.06,3.92v2.73c-.06.94-.25,1.37-1.3,1.56a19.85,19.85,0,0,1-2.43.25.27.27,0,0,0-.25.24c0,.13.13.19.44.19,1.93,0,4.48-.12,4.66-.12s2.12.06,4.36,0c.37,0,.5-.07.5-.19s-.13-.25-.25-.19a13.78,13.78,0,0,1-2.06-.18c-.93-.19-1-.62-1.24-1.5-.06-.62-.12-1.55-.19-2.67l-.12-3.92v-1.24Zm-26,9.27a2,2,0,0,0-1-.62,1.54,1.54,0,0,0-1.68.62,1.29,1.29,0,0,0-.25.62,1.52,1.52,0,0,0,1.31,1.87,1.68,1.68,0,0,0,2-1.31,1.33,1.33,0,0,0-.32-1.18m-21.08-14.8-.44,1.37c-1,2.92-1.74,5.47-1.86,6a6.38,6.38,0,0,0-.38,2.17c.07.13.13.19.19.31.37.63,1.55,1.44,4.35,2.37a10.63,10.63,0,0,0,7.72-.31,7.43,7.43,0,0,0,2.42-2.06,11.45,11.45,0,0,0,2-3.79,10.27,10.27,0,0,0,.19-6.1,7.09,7.09,0,0,0-.75-1.67c-1.8-3.61-5-5-8.39-6.23a13.68,13.68,0,0,0-1.93-.43c-.31,0-.44.12-.56.43-.31.94-1.25,3.74-1.93,5.85ZM324,383.65c-.24-.13-.37-.19-.31-.38a.39.39,0,0,1,.31-.12,2.32,2.32,0,0,0,.88.19c.62.06.93-.5,1.3-1.25.5-1.12,1.25-3.29,2.12-5.91l.81-2.49.8-2.36c1.37-4.29,1.62-5,1.87-6,.19-.68.19-1.18-.19-1.56a3.58,3.58,0,0,0-.49-.43,7.86,7.86,0,0,0-.94-.37c-.12-.44,0-.44.38-.32,1.12.38,2.8,1,3.17,1.12s2.24.63,4,1.19c2.86.93,8.21,2.42,10.51,6.9a8.1,8.1,0,0,1,.75,1.8,9.81,9.81,0,0,1-.19,6.1,12.91,12.91,0,0,1-2.05,3.79,11,11,0,0,1-3.55,3c-1.68.81-4.91,1.93-9.76.31-2.49-.81-6-2.3-6.35-2.42-.12-.07-1.93-.56-2.86-.81Zm-31.41-19.78A7.32,7.32,0,0,0,294,363l15.55-11.33c.81-.62,1-.68,1.18-.55s.19.24,0,1.24l-2.24,11.51-1.3,7a8.26,8.26,0,0,0-.13,2.93,2.74,2.74,0,0,0,.56,1.18,3.77,3.77,0,0,0,.94.81c.12.06.25.18.18.31s-.37.06-.62-.13-1.74-1.18-3.3-2.17l-.68-.44c-.44-.31-.75-.5-.68-.68s.18-.07.31-.07.49-.06.56-.56l1.55-7.52a.32.32,0,0,0-.12-.25l-.56-.37-4.92-3.24a.4.4,0,0,0-.37,0l-4.17,3.17a6.28,6.28,0,0,0-1.61,1.5c-.32.49.06,1.05.49,1.3l.25.19c.13.12.25.19.13.31s-.25.13-.5-.06c-.62-.37-1.68-1.18-2-1.37s-1.74-1-2.93-1.8c-.37-.25-.43-.38-.37-.5s.19-.13.31,0l.69.37a2.43,2.43,0,0,0,2.42.13M301,360l4.85,3.17,2.05-8.21c.07-.44,0-.56-.37-.25l-6.47,5.1c-.12.06-.12.19-.06.19M282.18,212.78c0,.06.06.12.19.25M263.52,251.9A114.05,114.05,0,1,1,377.54,366a114.18,114.18,0,0,1-114-114.08m-.5,0A114.55,114.55,0,1,0,377.54,137.33,114.67,114.67,0,0,0,263,251.9m4.92,109.6a155,155,0,1,1,109.6,45.41,154.12,154.12,0,0,1-109.6-45.41m-.31-219.57A155.5,155.5,0,1,0,377.54,96.4a154.5,154.5,0,0,0-109.91,45.53M396.14,134a8.55,8.55,0,0,0,4.72-.44,5.66,5.66,0,0,0,3.3-4.35c.37-2.24-.18-4.17-3.3-7.4l-.74-.75c-2.49-2.61-3.17-3.73-2.93-5.35.32-2.11,2.18-3,4.23-2.74,2.8.44,3.36,1.81,3.55,2.12a4,4,0,0,1,.12,1.49c0,.25,0,.38.19.38s.25-.13.31-.63c.31-2,.62-2.86.62-3s0-.19-.24-.25l-1.06-.31a9.72,9.72,0,0,0-2.74-.75c-3.79-.62-6.53,1.12-7,4.17-.31,1.92.13,3.79,2.93,6.78l1.18,1.3c2.24,2.43,2.92,3.73,2.61,5.66s-2.05,3.55-4.91,3.11c-2-.31-3.86-1.43-4-3.6a4.62,4.62,0,0,1,.12-1.06c0-.25,0-.31-.18-.38s-.25.13-.32.44a27.47,27.47,0,0,0-.62,3c-.06.8-.06.87.31,1.18a7.64,7.64,0,0,0,3.8,1.43M314,378.67a1.7,1.7,0,0,0,2.3-.75,1.5,1.5,0,0,0-.87-2.05,1.57,1.57,0,0,0-2.18.69,1.45,1.45,0,0,0,.75,2.11M228.63,251.9c0-82.11,66.8-148.91,148.91-148.91s148.91,66.8,148.91,148.91-66.8,148.91-148.91,148.91S228.63,334,228.63,251.9m-.5,0c0,82.42,67.05,149.41,149.41,149.41S527,334.26,527,251.9,460,102.49,377.54,102.49s-149.41,67-149.41,149.41m42.36,107A151.44,151.44,0,1,1,377.54,403.3a150.38,150.38,0,0,1-107-44.35m-1.12-215.22A153,153,0,1,0,377.54,99a152,152,0,0,0-108.17,44.78M265.51,251.9a112,112,0,0,0,39.81,85.65l1-1.18a110.52,110.52,0,1,1,143.19-.62l1,1.18a112,112,0,0,0-73-197c-61.77-.07-112,50.26-112,112m87.09-126c.37,2.74.68,5,.74,6.22-.06.81-.06,1.49-.68,1.68-.25.06-.62.19-.94.25a10.06,10.06,0,0,0,3.12-.13c.12,0,2.05-.18,3.67-.43.37-.06.49-.19.49-.31a6.91,6.91,0,0,0-1.61-.06c-.88,0-1.19-.63-1.37-1.44-.31-1.18-.63-3.48-1-6.22l-.12-.68,3.92-.68a49.58,49.58,0,0,1,4.29,3.85c2.05,1.93,3.23,3.18,4.66,3.61a6.18,6.18,0,0,0,3.3.06l2.18-.31c.56-.06.74-.18.68-.31a5.79,5.79,0,0,0-1.49-.06,6.18,6.18,0,0,1-4-1.56c-2-1.55-4.42-3.79-7.28-6.47,2.36-2.73,3.05-5,2.74-7.09a5,5,0,0,0-2.68-3.6c-1.68-.88-3.79-.75-5.66-.5-.93.12-3.17.56-3.54.62-.13,0-2,.19-3.36.37-.31.07-.5.13-.5.31.56.13,1.06.07,1.31.13,1.05.06,1.36.5,1.55,1.43s.31,1.68.93,6.22Zm.74-12.25a3.79,3.79,0,0,1,2.18-.81c3.23-.44,5.47,1.43,6,5,.31,2.17-.25,3.79-1.24,4.66a4.14,4.14,0,0,1-2.18.87,8.9,8.9,0,0,1-3.23,0Zm-22.89,27.61c.87-.31,2.68-1,2.8-1.05.87-.31,2.8-.81,7.22-2.3,1-.38,1.3-.44,1.3-1.25-.06-.62-.5-2.55-.5-2.8s-.18-.43-.37-.37-.12.19-.12.5c.18,1.18.06,1.86-.62,2.42a8.85,8.85,0,0,1-2.68,1.25c-2.8,1-3.36.74-4.1-1.06-.19-.56-1.31-3.73-1.56-4.67l-.81-2.42c-.06-.13-.06-.19.13-.25.49-.19,3.35-1.12,4.16-1.31,1.19-.31,1.62.13,1.81.44a5.84,5.84,0,0,1,.43.87c.07.12.13.25.25.19s.13-.38,0-.56a13.22,13.22,0,0,1-.43-1.81,15.69,15.69,0,0,0-.38-1.62c0-.12-.12-.18-.18-.12s-.19.19-.31.5-.56.56-1.25.87-4.23,1.49-4.54,1.62-.25,0-.31-.19l-2.61-7.59c-.07-.19-.07-.31.12-.31s3.42-1.18,3.92-1.31c1.68-.37,2.05-.12,2.36.25a2.28,2.28,0,0,1,.5.94c.06.24.19.37.31.24s.13-.18.13-.37c-.07-.37-.44-1.55-.5-1.87-.19-.8-.19-1.18-.25-1.36s-.12-.25-.19-.19-.18.19-.37.25-.62.31-1.18.56l-6.53,2.3c-.19.06-2,.62-3.3,1.06-.31.12-.43.25-.37.37s.18.12.31.12a3,3,0,0,1,1-.24,1.37,1.37,0,0,1,1.75,1.12c.37.87.62,1.61,2.11,5.9l1.68,4.79c.87,2.62,1.62,4.79,1.87,6,.18.8.24,1.49-.32,1.8a3.55,3.55,0,0,1-.87.44.18.18,0,0,0-.06.31h.38Zm41.74,8.9c-.06-.13-.37-.06-.56-.06v.18c.12-.06.5.07.56-.12m5.35,212.23c-25.19,0-51.5-10.38-71.22-26l-1,1.18c20,15.8,46.72,26.32,72.22,26.32s53-11.14,73-26.94l-1-1.18c-19.72,15.68-46.72,26.62-72,26.62m-45.78-204" transform="translate(-222.1 -96.4)"/><path class="cls-2" d="M378.13,198c-36.11,0-68.85,19.76-93,51.85a7.49,7.49,0,0,0,0,8.93c24.17,32.13,56.91,51.89,93,51.89s68.86-19.76,93-51.85a7.49,7.49,0,0,0,0-8.93C447,217.74,414.25,198,378.13,198Zm2.6,96A39.75,39.75,0,1,1,417.8,256.9,39.77,39.77,0,0,1,380.73,294Zm-1.2-18.32a21.41,21.41,0,1,1,20-20A21.37,21.37,0,0,1,379.53,275.66Z" transform="translate(-222.1 -96.4)"/><path class="cls-3" d="M309.47,323.15c1.87-2,2.21-2.42,2.56-2.87s.5-.77.1-1.24a4.62,4.62,0,0,0-.44-.45.2.2,0,0,1,0-.21c.07-.08.16-.05.32.09.62.56,1.45,1.37,1.56,1.47.29.27,1.34,1.17,2,1.74,1.75,1.59,1.88,2.7,1.93,3.12a3,3,0,0,1-.76,2.2c-1.72,1.9-4.3,1.86-6.39-.05a3.32,3.32,0,0,1-.38-.37.21.21,0,0,1,0-.25c.1-.11.21-.07.49.18,1.47,1.34,3.38,1.37,4.47.18a3.65,3.65,0,0,0,1-2.71,3.12,3.12,0,0,0-1.27-2.32,6.47,6.47,0,0,0-.84-.6c-.09-.06-.21,0-.34.15l-4.89,5.37c-1.15,1.28-2.1,2.32-2.53,2.92-.31.43-.46.75-.1,1.19.16.2.43.5.55.62a.13.13,0,0,1,0,.2c-.05.07-.16.06-.31-.09-.75-.67-1.61-1.54-1.67-1.6s-1-.8-1.39-1.18c-.14-.13-.19-.23-.12-.31a.15.15,0,0,1,.21,0,2.17,2.17,0,0,0,.47.32c.32.18.58,0,1-.37a33.68,33.68,0,0,0,2.68-2.79Z" transform="translate(-222.1 -96.4)"/><path class="cls-3" d="M323.32,328.4c.53-.35.65-.39.76-.31s.06.35,0,.78c-.16.81-2,8.54-2.66,11.4-.38,1.69-.1,2.17.15,2.51a2.51,2.51,0,0,0,.54.51c.08.06.16.17.1.25s-.25,0-.43-.12-1.33-.95-2.35-1.72c-.28-.23-.52-.4-.46-.48s.08-.05.18,0a.34.34,0,0,0,.41-.3l1-4.3c0-.09,0-.12-.07-.18L317,333.94a.2.2,0,0,0-.24,0l-2.51,1.72a3.55,3.55,0,0,0-.91.82c-.21.29,0,.57.23.76l.14.09c.12.09.11.16.07.23s-.18.06-.31,0c-.36-.25-1.15-.89-1.32-1s-.94-.59-1.56-1c-.19-.13-.27-.24-.2-.33a.17.17,0,0,1,.22,0,4.17,4.17,0,0,0,.47.28c.74.4,1.4.1,2.21-.43Zm-2.63,7.25c.07.05.09,0,.12-.07l1.35-5c.07-.29,0-.35-.26-.19l-4.24,3c-.06,0-.07.1,0,.14Z" transform="translate(-222.1 -96.4)"/><path class="cls-3" d="M329.25,338c1.28-2.46,1.51-2.91,1.73-3.43s.29-.87-.21-1.23a5.5,5.5,0,0,0-.54-.32.17.17,0,0,1-.06-.2c0-.09.14-.09.32,0,.75.39,1.83,1,1.92,1.05s1.57.76,2.07,1a6.16,6.16,0,0,1,2.7,2.28,3.15,3.15,0,0,1,0,2.75c-.61,1.18-1.68,2.06-3.89,2.57.47,2.38.87,4.4,1.3,5.88a3.39,3.39,0,0,0,1.26,2.05,3.14,3.14,0,0,0,.55.35.17.17,0,0,1,.08.21c-.05.09-.16.08-.46-.07l-1-.53a3.7,3.7,0,0,1-1.58-1.23,9.25,9.25,0,0,1-1-3.49c-.24-1.21-.44-2.62-.57-3.23a.28.28,0,0,0-.17-.21l-2.07-1.12c-.08,0-.13,0-.18.07l-.19.38c-.8,1.52-1.44,2.75-1.7,3.44-.19.5-.25.85.22,1.18a5.25,5.25,0,0,0,.68.45.13.13,0,0,1,.07.2c0,.08-.15.09-.33,0-.9-.47-1.91-1.07-2-1.1s-1.15-.53-1.65-.79c-.17-.09-.25-.17-.2-.27a.15.15,0,0,1,.2-.06,2.47,2.47,0,0,0,.54.19c.36.09.55-.19.87-.62a35.46,35.46,0,0,0,1.87-3.38Zm.72,2.07a.26.26,0,0,0,0,.27,6.32,6.32,0,0,0,1.68,1.18,2.46,2.46,0,0,0,1.37.36,3.22,3.22,0,0,0,2.25-1.91c1-2,.53-3.68-1.22-4.58a7.46,7.46,0,0,0-1.22-.52.22.22,0,0,0-.23.12Z" transform="translate(-222.1 -96.4)"/><path class="cls-3" d="M346.46,340.55c.41-.48.52-.55.64-.51s.16.32.2.76c.07.83.41,8.76.58,11.7.11,1.72.51,2.11.84,2.36a2.45,2.45,0,0,0,.66.34c.1,0,.2.12.17.22s-.25.07-.45,0-1.54-.55-2.74-1c-.32-.14-.6-.24-.57-.34s.07-.06.16-.07a.34.34,0,0,0,.32-.4l-.2-4.42c0-.09,0-.12-.13-.15l-4-1.42a.18.18,0,0,0-.22.08L339.76,350a3.84,3.84,0,0,0-.66,1c-.12.34.14.56.44.67l.15.05c.14,0,.16.13.13.2s-.14.11-.3.05c-.42-.14-1.35-.54-1.55-.61s-1.07-.31-1.78-.56c-.22-.08-.32-.16-.29-.26a.16.16,0,0,1,.21-.08l.53.14c.83.18,1.37-.29,2-1Zm-.53,7.7c.08,0,.09,0,.1-.1l-.1-5.22c0-.3-.1-.33-.29-.11l-3.25,4c-.05.08,0,.12,0,.14Z" transform="translate(-222.1 -96.4)"/><path class="cls-3" d="M354.52,354.16c-.23,1.45-.14,1.92.33,2.13a4.8,4.8,0,0,0,.89.27.15.15,0,0,1,.12.17c0,.1-.15.12-.36.09-1-.19-1.74-.39-1.91-.42s-.94-.11-1.76-.26c-.19,0-.29-.07-.27-.2a.14.14,0,0,1,.17-.11,3.52,3.52,0,0,0,.77,0c.47,0,.62-.51.91-2.1l1.85-10.06c.13-.7.26-.87.41-.84s.45.44.6.66,2.37,3.64,4.65,7.05c1.46,2.19,3,4.63,3.47,5.31l1.42-8.84c.19-1.14.16-1.55-.38-1.75a7.23,7.23,0,0,0-.87-.25.15.15,0,0,1-.12-.19c0-.1.17-.1.38-.06.82.15,1.68.35,1.89.39s.81.1,1.56.24c.18,0,.32.08.3.19a.19.19,0,0,1-.23.12,2.22,2.22,0,0,0-.44,0c-.63,0-.73.35-.92,1.41l-1.93,10.28c-.21,1.16-.25,1.26-.38,1.23s-.34-.21-1.18-1.33c-.16-.19-2.31-3.26-3.86-5.61-1.71-2.6-3.36-5.12-3.8-5.85Z" transform="translate(-222.1 -96.4)"/><path class="cls-3" d="M377.27,345.4c4.15.07,7.26,2.66,7.2,6.81a7.16,7.16,0,0,1-7.53,7.17,6.85,6.85,0,0,1-7.11-7.13A7.07,7.07,0,0,1,377.27,345.4Zm.21,13.25c1.65,0,5-.8,5.09-6,.07-4.29-2.5-6.57-5.42-6.62-3.08-.05-5.34,1.85-5.4,5.73C371.68,356,374.14,358.6,377.48,358.65Z" transform="translate(-222.1 -96.4)"/><path class="cls-3" d="M388.51,350.37c-.39-2.75-.46-3.25-.59-3.8s-.27-.87-.88-.87a4.58,4.58,0,0,0-.63.05.2.2,0,0,1-.17-.13c0-.1.06-.16.27-.18.83-.12,2.06-.25,2.17-.27s1.72-.29,2.28-.37a6,6,0,0,1,3.52.28,3.17,3.17,0,0,1,1.61,2.23c.18,1.31-.18,2.66-1.67,4.36,1.76,1.65,3.26,3.07,4.47,4a3.41,3.41,0,0,0,2.21.94,4.19,4.19,0,0,0,.66,0,.15.15,0,0,1,.18.12c0,.11-.08.16-.41.21l-1.14.16a3.78,3.78,0,0,1-2-.07,9.47,9.47,0,0,1-2.86-2.25c-.91-.84-1.88-1.87-2.34-2.29a.29.29,0,0,0-.27-.07l-2.33.29c-.08,0-.12.06-.11.16l.06.42c.25,1.7.44,3.07.63,3.79.13.51.29.83.86.83a6.71,6.71,0,0,0,.82,0,.13.13,0,0,1,.17.12c0,.09-.06.16-.27.19-1,.14-2.17.25-2.26.26s-1.23.24-1.8.32c-.18,0-.29,0-.31-.11a.14.14,0,0,1,.13-.16,3.8,3.8,0,0,0,.55-.16c.34-.14.33-.48.34-1a37.49,37.49,0,0,0-.44-3.84Zm1.79,1.27a.25.25,0,0,0,.16.21,6,6,0,0,0,2.05,0,2.35,2.35,0,0,0,1.33-.51,3.19,3.19,0,0,0,.72-2.86c-.32-2.2-1.7-3.29-3.66-3a9.42,9.42,0,0,0-1.29.29.25.25,0,0,0-.12.23Z" transform="translate(-222.1 -96.4)"/><path class="cls-3" d="M417.6,349.46c.26.58.68,1.46,1.47,1.47a3.78,3.78,0,0,0,1.19-.21c.08,0,.16,0,.18.07s-.11.21-.31.28c-.4.13-2.37.72-3,.87-.44.1-.54.06-.56,0a.14.14,0,0,1,.07-.17c.1-.06,0-.32-.11-.63l-3.63-8.32,0,0-1.42,10c-.12.86-.17,1.05-.33,1.1s-.31-.07-.85-.58c-.73-.69-2.6-2.49-3.33-3.27s-3.22-3.31-3.75-3.91l-.08,0,1.82,7.89c.06.26.16.58.25.86a.52.52,0,0,0,.58.35,3.14,3.14,0,0,0,.71-.12.16.16,0,0,1,.18.07c0,.12-.07.2-.27.26-.66.22-1.52.43-1.66.48s-1,.38-1.45.54c-.18.05-.32.05-.36-.07s.05-.14.15-.17.25-.11.5-.23c.54-.29.36-.92.23-1.58L401.44,343c0-.19,0-.33.1-.37a.43.43,0,0,1,.45.15l8.74,8.82,1.69-12.19c0-.18.07-.33.19-.37s.27.07.41.38Z" transform="translate(-222.1 -96.4)"/><path class="cls-3" d="M421.48,335.47c-.07-.62,0-.76.07-.81s.34.1.69.37c.65.51,6.7,5.65,9,7.52,1.34,1.1,1.89,1.07,2.3,1a2.81,2.81,0,0,0,.7-.25c.09-.05.23-.07.27,0s-.11.23-.3.33-1.45.76-2.6,1.32c-.33.15-.59.28-.64.19s0-.09.06-.17a.34.34,0,0,0-.08-.51l-3.38-2.85a.14.14,0,0,0-.19,0l-3.78,2a.21.21,0,0,0-.1.22l.41,3a3.36,3.36,0,0,0,.31,1.18c.17.32.51.28.78.14l.15-.08c.13-.07.2,0,.24,0s0,.18-.17.26c-.4.2-1.32.62-1.5.72s-1,.57-1.63.92c-.2.11-.33.13-.38,0a.17.17,0,0,1,.08-.21,4.92,4.92,0,0,0,.46-.29c.7-.48.72-1.21.61-2.17Zm5.28,5.62c.08,0,.06-.07,0-.14l-3.9-3.48c-.22-.19-.31-.14-.28.15l.76,5.13c0,.09.06.11.11.08Z" transform="translate(-222.1 -96.4)"/><path class="cls-3" d="M435.88,336.14c1.51,2.16,2.15,3,2.61,3.08s1.07-.23,2.25-1.06c.8-.56,1.46-1,1.52-1.72a2.14,2.14,0,0,0-.22-1.08c-.05-.12-.06-.24,0-.3s.15,0,.26.15a13,13,0,0,1,.79,1.62c.14.42.12.51-.69,1.07-1.08.76-1.94,1.33-2.67,1.79s-1.23.8-1.68,1.11c-.06.05-.32.23-.6.45s-.62.48-.86.65-.26.13-.32.05a.15.15,0,0,1,0-.21,2.21,2.21,0,0,0,.42-.39c.25-.27.09-.57-.14-1.05a37.09,37.09,0,0,0-2.13-3.23l-1.8-2.58c-1.58-2.28-1.87-2.69-2.23-3.13s-.64-.66-1.19-.38l-.54.32a.17.17,0,0,1-.2,0c-.06-.09,0-.17.16-.29.69-.48,1.66-1.1,1.74-1.16s1.18-.88,1.65-1.21c.15-.1.26-.13.32,0a.14.14,0,0,1,0,.18c-.11.08-.32.25-.48.39-.39.4-.32.68,0,1.22s.59.89,2.18,3.16Z" transform="translate(-222.1 -96.4)"/><path class="cls-3" d="M445.07,329c1.12,1.31,2,2.38,2.58,2.89.39.35.65.57,1.12.28a6.53,6.53,0,0,0,.69-.48.14.14,0,0,1,.21,0c.06.07,0,.17-.13.31-.78.66-1.73,1.39-1.79,1.45s-.92.86-1.35,1.23c-.14.12-.25.16-.32.08a.15.15,0,0,1,0-.21,2.61,2.61,0,0,0,.37-.43c.22-.29,0-.59-.24-1-.42-.61-1.32-1.7-2.43-3l-2.05-2.4c-1.8-2.11-2.13-2.49-2.53-2.89s-.72-.55-1.07-.35a2.65,2.65,0,0,0-.48.32.15.15,0,0,1-.2,0c-.07-.08,0-.17.13-.3.46-.4,1.36-1.12,1.44-1.19s.95-.86,1.38-1.23c.16-.13.25-.16.32-.08a.18.18,0,0,1,0,.21,2,2,0,0,0-.32.33c-.32.41-.23.67.15,1.18s.68.82,2.48,2.93Z" transform="translate(-222.1 -96.4)"/><path class="cls-3" d="M313.4,180.66a6.35,6.35,0,0,1-4.78-2.6,6.69,6.69,0,0,1-1.33-4.83,7.19,7.19,0,0,1,3-4.73,17.32,17.32,0,0,1,2.12-1.42,15,15,0,0,0,1.56-.91c.14-.11.22-.08.28,0s.18.29.53.8.91,1.18,1.05,1.38.14.34.06.4-.18,0-.33-.19a2.19,2.19,0,0,0-1.62-.87,5.68,5.68,0,0,0-3.28,1.41c-1.75,1.39-2.22,2.53-2.35,3.36a5.56,5.56,0,0,0,1.52,4.43,6.13,6.13,0,0,0,8.74.87c1-.81,1.64-1.44,1.76-2.41a3.2,3.2,0,0,0-.35-1.53c-.08-.16-.1-.22,0-.29s.2,0,.27.08a18,18,0,0,1,1,2,.57.57,0,0,1,0,.66,10.52,10.52,0,0,1-2.24,2.26A8.24,8.24,0,0,1,313.4,180.66Z" transform="translate(-222.1 -96.4)"/><path class="cls-3" d="M321.11,167.13c-1.36-2.24-1.61-2.65-1.92-3.08s-.56-.66-1.1-.43l-.53.28a.17.17,0,0,1-.19-.05c-.05-.08,0-.16.17-.26.67-.42,1.66-1,1.75-1s3.23-1.95,3.56-2.17a7.63,7.63,0,0,0,.63-.5c.06-.06.09-.15.16-.19s.11,0,.15.09a5.84,5.84,0,0,0,.3.75c.06.15.42.82.49,1s0,.19,0,.23-.16,0-.24-.11a1.87,1.87,0,0,0-.39-.46c-.25-.18-.46-.18-1.34.21-.27.12-2,1.16-2.18,1.26s-.06.1,0,.21l2.39,3.91c.06.11.09.16.18.11s2.15-1.32,2.47-1.56.55-.4.61-.64,0-.29.1-.33.11,0,.16.07a7.09,7.09,0,0,0,.37.87c.14.31.44.87.5,1s.13.29,0,.35-.14,0-.19-.07a1.46,1.46,0,0,0-.35-.44c-.18-.17-.42-.26-1,0-.43.19-2,1.15-2.29,1.3a.11.11,0,0,0,0,.17l.73,1.2c.3.49,1.3,2.18,1.5,2.46.62.95,1,1,2.48.07a5.94,5.94,0,0,0,1.4-1.06,1.28,1.28,0,0,0,.07-1.42c-.07-.19-.07-.26,0-.31s.17.06.24.16a14.59,14.59,0,0,1,.64,1.51c.12.44,0,.53-.61.88-1.11.69-2,1.18-2.62,1.53s-1,.59-1.26.72l-.64.41c-.27.2-.6.42-.84.56s-.26.11-.31,0a.13.13,0,0,1,.05-.19,4.47,4.47,0,0,0,.41-.35c.26-.22.12-.53-.07-1a35.51,35.51,0,0,0-1.82-3.17Z" transform="translate(-222.1 -96.4)"/><path class="cls-3" d="M334,166.18c.59,1.25.91,1.57,1.39,1.49a4.13,4.13,0,0,0,.84-.25.14.14,0,0,1,.18.07c0,.09-.05.17-.23.25-.91.4-1.57.62-1.72.68s-.8.41-1.52.73c-.17.07-.27.09-.31,0a.12.12,0,0,1,.07-.18,2.49,2.49,0,0,0,.61-.38c.36-.28.23-.72-.38-2.12l-3.85-8.88c-.27-.62-.25-.82-.12-.88s.59.12.83.21,3.77,1.61,7.35,3.09c2.3.95,4.81,2,5.52,2.34l-3.53-7.69c-.45-1-.69-1.3-1.22-1.18a7.82,7.82,0,0,0-.82.27.14.14,0,0,1-.19-.09c0-.09.08-.16.26-.24.73-.32,1.51-.61,1.7-.69s.69-.35,1.35-.63c.16-.07.29-.11.33,0a.19.19,0,0,1-.11.22,2.3,2.3,0,0,0-.37.21c-.48.33-.38.66,0,1.59l3.9,9.09c.44,1,.46,1.12.35,1.16s-.38,0-1.63-.41c-.23-.08-3.53-1.35-6-2.38-2.7-1.15-5.33-2.26-6.06-2.59Z" transform="translate(-222.1 -96.4)"/><path class="cls-3" d="M351.58,157c.43,1.57.78,2.86,1,3.51.18.46.34.75.88.68a6.19,6.19,0,0,0,.79-.13.13.13,0,0,1,.17.1c0,.08,0,.16-.23.21-.92.25-2,.48-2.11.51s-1.23.39-1.72.53c-.2,0-.28,0-.31-.06a.12.12,0,0,1,.1-.15,2.62,2.62,0,0,0,.48-.22c.33-.17.33-.52.26-1-.11-.69-.45-2-.88-3.55l-1.86-6.84-2.42.7c-1,.3-1.42.53-1.57,1a2.42,2.42,0,0,0-.12.59c0,.14-.06.18-.14.2a.14.14,0,0,1-.15-.1c0-.18-.09-1.73-.11-1.87s0-.34.09-.35a5.31,5.31,0,0,0,.8,0c.49-.07,1.15-.23,1.34-.28l6.36-1.73a8.55,8.55,0,0,0,1.19-.41c.24-.1.38-.18.46-.2s.1.07.13.17c.13.5.39,1.68.44,1.87s0,.23-.09.25-.13,0-.21-.25l-.07-.16c-.19-.49-.66-.75-2.28-.35l-2.12.53Z" transform="translate(-222.1 -96.4)"/><path class="cls-3" d="M359.46,152.17c-.36-2.6-.42-3.07-.54-3.6s-.25-.82-.83-.82a4.22,4.22,0,0,0-.6,0,.15.15,0,0,1-.15-.12c0-.1.06-.15.25-.17.79-.11,2-.23,2.06-.25l2.15-.34a5.78,5.78,0,0,1,3.33.28,3,3,0,0,1,1.52,2.12c.17,1.24-.18,2.51-1.6,4.11,1.66,1.58,3.07,2.93,4.22,3.83a3.22,3.22,0,0,0,2.09.9,2.84,2.84,0,0,0,.62,0,.15.15,0,0,1,.17.12c0,.1-.08.15-.39.2l-1.08.14a3.58,3.58,0,0,1-1.9-.07,8.91,8.91,0,0,1-2.7-2.14c-.85-.8-1.77-1.78-2.21-2.18a.28.28,0,0,0-.25-.07l-2.21.27c-.08,0-.11.05-.1.15l.06.4c.22,1.61.4,2.91.57,3.59.13.48.27.78.81.79.25,0,.63,0,.78,0a.13.13,0,0,1,.16.12c0,.08-.06.15-.26.17-.94.13-2.05.23-2.13.24s-1.17.22-1.71.29c-.17,0-.28,0-.29-.1a.13.13,0,0,1,.12-.15,2.38,2.38,0,0,0,.52-.15c.32-.13.32-.45.33-1a36.14,36.14,0,0,0-.4-3.64Zm1.69,1.21a.26.26,0,0,0,.15.2,5.93,5.93,0,0,0,1.95,0,2.2,2.2,0,0,0,1.25-.47,3,3,0,0,0,.69-2.7c-.28-2.09-1.59-3.13-3.44-2.88a8.05,8.05,0,0,0-1.23.27.23.23,0,0,0-.11.22Z" transform="translate(-222.1 -96.4)"/><path class="cls-3" d="M378.71,145.58c3.94.06,6.88,2.51,6.81,6.44a6.76,6.76,0,0,1-7.12,6.78,6.47,6.47,0,0,1-6.73-6.74A6.7,6.7,0,0,1,378.71,145.58Zm.2,12.54c1.57,0,4.74-.76,4.82-5.65.06-4.05-2.36-6.22-5.13-6.26-2.92-.05-5.05,1.75-5.11,5.42C373.43,155.56,375.75,158.07,378.91,158.12Z" transform="translate(-222.1 -96.4)"/><path class="cls-3" d="M393.91,159.68c-.21-.17-.22-.23-.13-.68.18-.81.39-1.46.47-1.73s.09-.26.19-.24.15.09.12.23a2.37,2.37,0,0,0-.07.61c0,1.26,1.21,2,2.36,2.2,1.69.36,2.76-.41,3-1.65s-.28-1.89-1.56-3.34l-.65-.74c-1.56-1.77-1.95-2.91-1.71-4.06.41-1.94,2.19-2.78,4.45-2.31a9.19,9.19,0,0,1,1.73.57,2.15,2.15,0,0,0,.58.2c.14,0,.17.06.15.16a17.55,17.55,0,0,0-.44,1.73c-.06.25-.1.37-.22.34s-.12-.11-.11-.25a3.25,3.25,0,0,0-.08-.87c-.07-.21-.51-1-2-1.28-1.25-.26-2.41.15-2.65,1.31s.17,1.76,1.62,3.27l.42.43c1.78,1.86,2.26,3.15,2,4.57a3.27,3.27,0,0,1-2.19,2.49,5.46,5.46,0,0,1-2.84,0A6.55,6.55,0,0,1,393.91,159.68Z" transform="translate(-222.1 -96.4)"/><path class="cls-3" d="M410.21,159.1c-.51,1.55-.93,2.81-1.08,3.49-.1.49-.12.82.36,1.06a5.45,5.45,0,0,0,.73.33.13.13,0,0,1,.09.18c0,.07-.12.1-.31,0-.9-.3-1.94-.71-2-.74s-1.24-.35-1.73-.51c-.19-.07-.25-.13-.22-.22a.12.12,0,0,1,.17-.07,2.17,2.17,0,0,0,.52.08c.36,0,.56-.25.77-.7.3-.63.72-1.9,1.23-3.44l2.24-6.73-2.4-.76c-1.05-.32-1.48-.34-1.85-.05a2.8,2.8,0,0,0-.43.42c-.08.12-.15.12-.22.1a.14.14,0,0,1-.07-.17c0-.17.87-1.49.93-1.62s.22-.26.27-.24a7,7,0,0,0,.68.43c.45.21,1.08.45,1.27.51l6.26,2.08a8.58,8.58,0,0,0,1.21.32l.49.08c.08,0,.05.12,0,.22-.17.49-.6,1.62-.67,1.81s-.14.18-.22.15-.09-.09,0-.32l0-.18c.11-.51-.13-1-1.7-1.55l-2.06-.73Z" transform="translate(-222.1 -96.4)"/><path class="cls-3" d="M418.67,159c1.16-2.36,1.37-2.78,1.57-3.28s.25-.83-.24-1.16l-.51-.29a.18.18,0,0,1-.07-.19c.05-.09.13-.09.31,0,.72.35,1.64.85,1.79.92s1.14.51,1.6.74c.18.08.25.16.21.25a.17.17,0,0,1-.2.06,1.68,1.68,0,0,0-.42-.16c-.44-.13-.66.1-.94.58s-.48.89-1.63,3.24l-1,2.13c-1.08,2.19-1,3.34-.66,4.27a3.42,3.42,0,0,0,1.94,2,3.55,3.55,0,0,0,2.95.11c1.16-.51,1.93-1.68,2.69-3.23l.93-1.91c1.15-2.36,1.34-2.79,1.56-3.28s.27-.82-.21-1.15c-.12-.08-.38-.22-.52-.29a.15.15,0,0,1-.06-.19c0-.09.13-.09.31,0,.69.34,1.59.82,1.67.86s.88.39,1.34.61c.18.09.23.16.19.25a.15.15,0,0,1-.19.06,1.92,1.92,0,0,0-.41-.15c-.47-.12-.68.08-1,.56s-.46.9-1.61,3.26l-.8,1.62c-.8,1.64-1.91,3.38-3.69,3.84a5.31,5.31,0,0,1-3.82-.5,5.51,5.51,0,0,1-2.74-2.67c-.42-1.09-.51-2.44.57-4.65Z" transform="translate(-222.1 -96.4)"/><path class="cls-3" d="M433,166.54c1.49-2.15,1.77-2.54,2-3s.38-.78-.05-1.18c-.11-.09-.34-.28-.47-.37a.15.15,0,0,1,0-.19c.05-.09.14-.07.31,0,.65.45,1.55,1.13,1.63,1.19s1.1.72,1.95,1.31c1.43,1,4.15,2.7,4.65,5.59a5.89,5.89,0,0,1-1.05,4.49,6.73,6.73,0,0,1-4.26,2.82,7,7,0,0,1-5.46-1.43c-.62-.44-1.36-1-1.95-1.48s-1.05-.86-1.12-.9l-.6-.39c-.3-.19-.66-.41-.88-.57s-.21-.19-.15-.28a.13.13,0,0,1,.19,0,2.48,2.48,0,0,0,.49.24c.32.13.53-.11.88-.47a34.37,34.37,0,0,0,2.17-2.94Zm.26,2.41c-1,1.47-1.92,2.75-2.09,3a3.27,3.27,0,0,0-.53,1.1c0,.39.3,1,2,2.22a5.94,5.94,0,0,0,4.24,1.08,5.69,5.69,0,0,0,3.41-2.51,5.83,5.83,0,0,0,1.07-4.41c-.4-2.31-1.86-3.59-3.57-4.79a4.34,4.34,0,0,0-.93-.5.3.3,0,0,0-.37.15Z" transform="translate(-222.1 -96.4)"/><path class="cls-3" d="M445.24,179.69c-1.08,1.22-2,2.22-2.37,2.79-.28.41-.45.69-.11,1.09a6.78,6.78,0,0,0,.54.59.13.13,0,0,1,0,.19c-.05.06-.15.06-.3-.08-.73-.64-1.54-1.44-1.59-1.49s-.94-.74-1.34-1.1c-.13-.12-.18-.21-.11-.29a.13.13,0,0,1,.19,0,3,3,0,0,0,.46.3c.3.16.56,0,.93-.37s1.42-1.45,2.5-2.67l2-2.23c1.74-2,2.06-2.32,2.38-2.74s.42-.75.19-1.06a3.06,3.06,0,0,0-.36-.4.14.14,0,0,1,0-.19c.07-.08.15-.05.3.08.43.38,1.22,1.14,1.3,1.2s.93.78,1.33,1.13c.15.13.18.21.12.29a.18.18,0,0,1-.2,0,2,2,0,0,0-.35-.26c-.43-.24-.66-.13-1.08.29s-.69.74-2.43,2.7Z" transform="translate(-222.1 -96.4)"/></svg>